<svg width="261" height="36" viewBox="0 0 261 36" fill="none" xmlns="http://www.w3.org/2000/svg">
<path d="M105.32 0.0134277L98.5038 7.03121L91.7007 0.0134277H81.0063V7.03121H95.0016V35.1292H102.019V7.03121H116.015V0.0134277H105.32Z" fill="#FF4E00"/>
<path d="M27.6686 28.0979H11.4458C9.11104 28.0979 7.12512 26.2999 7.01778 23.9651C7.01778 23.898 7.01778 23.8175 7.01778 23.7504V0H0V24.7434L10.3992 35.1157H34.6998V0.0134181H27.682V28.0979H27.6686Z" fill="#FF4E00"/>
<path d="M47.7692 23.9785C47.7692 23.9114 47.7692 23.8309 47.7692 23.7638V21.0668H75.3707V14.049H47.7692V7.03121H75.3707V0.0134277H47.7692H40.7514V24.7702L51.1506 35.1292H53.9014H54.0892H75.3707V28.1114H52.1972C49.8624 28.1114 47.8765 26.3133 47.7692 23.9785Z" fill="#FF4E00"/>
<path d="M133.472 14.5052C132.667 14.5052 131.956 14.3308 131.338 13.9953C130.721 13.6598 130.252 13.2036 129.889 12.6401C129.54 12.0765 129.272 11.4458 129.098 10.7749C128.923 10.104 128.829 9.3794 128.829 8.61456C128.829 7.59476 128.977 6.65548 129.285 5.79671C129.581 4.93794 130.104 4.21335 130.829 3.62294C131.553 3.03254 132.439 2.73733 133.485 2.73733C134.505 2.73733 135.35 3.0057 136.048 3.54243C136.746 4.07917 137.175 4.81717 137.377 5.75646H140.114C139.859 4.02549 139.121 2.69708 137.887 1.77122C136.652 0.845353 135.203 0.38913 133.539 0.38913C131.996 0.38913 130.654 0.764842 129.5 1.52969C128.346 2.28111 127.487 3.27407 126.924 4.50855C126.347 5.74304 126.065 7.09829 126.065 8.60114C126.065 11.0835 126.736 13.0829 128.078 14.5857C129.42 16.0886 131.191 16.84 133.418 16.84C135.377 16.84 136.961 16.263 138.195 15.109C139.43 13.955 140.114 12.4119 140.262 10.4797H137.497C137.149 13.1634 135.807 14.5052 133.472 14.5052Z" fill="black"/>
<path d="M148.165 4.75009C146.394 4.75009 144.985 5.30024 143.938 6.38713C142.892 7.47401 142.355 8.9366 142.355 10.7749C142.355 12.6266 142.878 14.1027 143.925 15.1895C144.971 16.2764 146.38 16.8266 148.165 16.8266C149.909 16.8266 151.305 16.2764 152.325 15.1895C153.344 14.1027 153.854 12.6266 153.854 10.7749C153.854 8.9366 153.344 7.47401 152.311 6.38713C151.278 5.30024 149.896 4.75009 148.165 4.75009ZM150.473 13.7672C149.909 14.4918 149.131 14.8541 148.152 14.8541C147.132 14.8541 146.34 14.4918 145.763 13.7672C145.186 13.0426 144.904 12.0497 144.904 10.7615C144.904 9.51359 145.186 8.52064 145.763 7.80947C146.34 7.08488 147.118 6.72258 148.125 6.72258C149.131 6.72258 149.909 7.08488 150.473 7.79605C151.037 8.50722 151.318 9.48676 151.318 10.7481C151.318 12.0362 151.037 13.0426 150.473 13.7672Z" fill="black"/>
<path d="M162.657 4.77692C161.047 4.77692 159.799 5.43441 158.886 6.76283V5.08554H156.498V16.4777H159.007V10.3455C159.007 8.03757 159.933 6.88359 161.785 6.88359C162.268 6.88359 162.67 6.9641 162.979 7.1117C163.287 7.27272 163.516 7.50083 163.65 7.80946C163.784 8.11808 163.878 8.4267 163.932 8.7219C163.972 9.0171 163.999 9.40624 163.999 9.86246V16.4777H166.508V8.88292C166.508 7.55451 166.186 6.54814 165.542 5.83696C164.924 5.12579 163.958 4.77692 162.657 4.77692Z" fill="black"/>
<path d="M178.155 10.8822C177.913 10.6675 177.551 10.4663 177.068 10.265C176.572 10.0637 176.196 9.92954 175.941 9.86245C175.686 9.79536 175.27 9.70143 174.693 9.56724C174.559 9.54041 174.371 9.50015 174.116 9.44648C173.861 9.39281 173.687 9.35255 173.579 9.32572C173.472 9.29888 173.324 9.25862 173.123 9.20495C172.935 9.15128 172.801 9.11102 172.721 9.07077C172.64 9.03051 172.533 8.99026 172.398 8.92317C172.264 8.86949 172.17 8.8024 172.117 8.74873C172.063 8.69505 172.009 8.62796 171.956 8.54745C171.889 8.46694 171.835 8.3596 171.808 8.25225C171.781 8.15832 171.781 8.03756 171.781 7.90337C171.781 7.48741 171.956 7.16537 172.305 6.93725C172.653 6.69573 173.163 6.58838 173.807 6.58838C175.31 6.58838 176.129 7.1922 176.276 8.39985H178.678C178.678 7.17878 178.235 6.26634 177.35 5.66252C176.464 5.05869 175.31 4.76349 173.915 4.76349C172.452 4.76349 171.312 5.07211 170.493 5.67593C169.675 6.29317 169.259 7.12511 169.259 8.19858C169.259 9.36597 169.782 10.1979 170.829 10.6944C171.271 10.9091 172.305 11.2177 173.915 11.6202C173.955 11.6337 174.009 11.6471 174.049 11.6471C174.089 11.6605 174.129 11.6605 174.156 11.6739C174.183 11.6873 174.223 11.6873 174.29 11.7008C174.666 11.7947 174.975 11.8618 175.203 11.9289C175.431 11.996 175.673 12.0899 175.914 12.2107C176.169 12.3314 176.343 12.4924 176.451 12.6669C176.558 12.8413 176.612 13.056 176.612 13.311C176.612 13.8074 176.384 14.21 175.941 14.5186C175.498 14.8138 174.894 14.9748 174.17 14.9748C172.466 14.9748 171.54 14.2637 171.406 12.8279H169.004C169.057 14.1161 169.527 15.109 170.399 15.7799C171.271 16.4508 172.506 16.7997 174.129 16.7997C175.646 16.7997 176.853 16.4643 177.752 15.7799C178.651 15.109 179.094 14.1966 179.094 13.0426C179.094 12.5595 179 12.1301 178.799 11.7544C178.598 11.3787 178.383 11.0969 178.155 10.8822Z" fill="black"/>
<path d="M184.878 1.66385H182.368V5.08552H180.476V6.91041H182.368V12.3448C182.368 12.3851 182.368 12.4388 182.368 12.4924C182.368 12.5461 182.368 12.5864 182.368 12.6266C182.368 12.6669 182.368 12.7071 182.368 12.7742C182.368 13.2304 182.368 13.5525 182.368 13.7403C182.368 13.9282 182.382 14.1966 182.422 14.5454C182.462 14.8943 182.516 15.1493 182.596 15.2834C182.677 15.4176 182.798 15.6055 182.932 15.8067C183.079 16.0214 183.267 16.169 183.482 16.263C183.697 16.3569 183.978 16.424 184.314 16.4911C184.649 16.5582 185.025 16.585 185.468 16.585C186.099 16.585 187.024 16.5582 187.521 16.4911V14.5052C187.266 14.532 186.582 14.5454 186.166 14.5454C185.844 14.5454 185.589 14.5186 185.401 14.4515C185.213 14.3978 185.092 14.2771 185.012 14.116C184.931 13.9416 184.891 13.794 184.878 13.6464C184.864 13.5122 184.851 13.2573 184.851 12.9084V6.91041H187.669V5.08552H184.851V1.66385H184.878Z" fill="black"/>
<path d="M191.613 7.35321V5.08552H189.252V16.4777H191.748V11.4592C191.748 8.61453 192.848 7.20561 195.035 7.20561C195.183 7.20561 195.478 7.23245 195.921 7.2727V4.87082L195.438 4.83057C193.693 4.81715 192.419 5.6625 191.613 7.35321Z" fill="black"/>
<path d="M205.22 11.1104C205.22 12.1436 205.005 12.9889 204.562 13.6598C204.119 14.3307 203.435 14.6662 202.482 14.6662C202.066 14.6662 201.717 14.6125 201.436 14.4918C201.154 14.371 200.926 14.2368 200.778 14.0758C200.617 13.9148 200.51 13.6867 200.429 13.3781C200.349 13.0828 200.295 12.8011 200.282 12.5595C200.268 12.318 200.255 11.996 200.255 11.5934V5.08553H197.746V12.6266C197.746 13.9685 198.081 14.9882 198.752 15.6994C199.423 16.4106 200.376 16.7729 201.637 16.7729C203.18 16.7729 204.428 16.102 205.394 14.7601V16.4643H207.756V5.07211H205.247V11.1104H205.22Z" fill="black"/>
<path d="M217.86 14.1026C217.377 14.5455 216.773 14.7736 216.021 14.7736C215.069 14.7736 214.317 14.4247 213.781 13.7135C213.244 13.0023 212.975 12.0228 212.975 10.7615C212.975 9.50017 213.257 8.49379 213.807 7.7692C214.371 7.04461 215.136 6.68232 216.102 6.68232C216.773 6.68232 217.336 6.87018 217.779 7.25931C218.222 7.64844 218.517 8.19859 218.665 8.90976H221.161C221.013 7.59477 220.49 6.57497 219.604 5.83697C218.718 5.09896 217.538 4.73666 216.088 4.73666C214.358 4.73666 212.975 5.28682 211.956 6.40054C210.936 7.51426 210.426 9.00369 210.426 10.8957C210.426 12.6401 210.936 14.0624 211.942 15.1493C212.949 16.2362 214.317 16.7729 216.021 16.7729C217.444 16.7729 218.638 16.3569 219.577 15.525C220.517 14.6931 221.08 13.5793 221.255 12.1838H218.786C218.638 13.0023 218.343 13.6464 217.86 14.1026Z" fill="black"/>
<path d="M226.957 1.315H224.448V5.07213H222.556V6.89702H224.448V12.3314C224.448 12.3717 224.448 12.4254 224.448 12.479C224.448 12.5327 224.448 12.573 224.448 12.6132C224.448 12.6535 224.448 12.6937 224.448 12.7608C224.448 13.217 224.448 13.5391 224.448 13.7269C224.448 13.9148 224.462 14.1832 224.502 14.532C224.542 14.8809 224.596 15.1359 224.676 15.27C224.757 15.4042 224.878 15.5921 225.012 15.7934C225.159 16.0081 225.347 16.1557 225.562 16.2496C225.777 16.3435 226.058 16.4106 226.394 16.4777C226.729 16.5448 227.105 16.5716 227.548 16.5716C228.178 16.5716 228.742 16.5448 229.252 16.4777V14.4918C228.997 14.5186 228.675 14.532 228.259 14.532C227.937 14.532 227.682 14.5052 227.494 14.4381C227.306 14.3844 227.185 14.2637 227.105 14.1027C227.024 13.9282 226.984 13.7806 226.971 13.633C226.957 13.4988 226.944 13.2439 226.944 12.895V6.89702H229.762V5.07213H226.944V1.315H226.957Z" fill="black"/>
<path d="M234.123 4.56223H231.613V16.4777H234.123V4.56223Z" fill="black"/>
<path d="M242.657 4.75009C240.886 4.75009 239.477 5.30024 238.43 6.38713C237.383 7.47401 236.847 8.9366 236.847 10.7749C236.847 12.6266 237.37 14.1027 238.417 15.1895C239.463 16.2764 240.872 16.8266 242.657 16.8266C244.401 16.8266 245.797 16.2764 246.816 15.1895C247.836 14.1027 248.346 12.6266 248.346 10.7749C248.346 8.9366 247.836 7.47401 246.803 6.38713C245.77 5.30024 244.388 4.75009 242.657 4.75009ZM244.951 13.7672C244.388 14.4918 243.609 14.8541 242.63 14.8541C241.61 14.8541 240.818 14.4918 240.241 13.7672C239.664 13.0426 239.383 12.0497 239.383 10.7615C239.383 9.51359 239.664 8.52064 240.241 7.80947C240.818 7.08488 241.597 6.72258 242.603 6.72258C243.609 6.72258 244.388 7.08488 244.951 7.79605C245.515 8.50722 245.797 9.48676 245.797 10.7481C245.81 12.0362 245.528 13.0426 244.951 13.7672Z" fill="black"/>
<path d="M260.047 5.83696C259.403 5.12579 258.437 4.77692 257.149 4.77692C255.538 4.77692 254.29 5.43441 253.378 6.76283V5.08554H250.99V16.4777H253.499V10.3455C253.499 8.03757 254.425 6.88359 256.276 6.88359C256.759 6.88359 257.162 6.9641 257.471 7.1117C257.779 7.27272 258.007 7.50083 258.142 7.80946C258.276 8.11808 258.37 8.4267 258.423 8.7219C258.464 9.0171 258.49 9.40624 258.49 9.86246V16.4777H261V8.88292C261.013 7.55451 260.691 6.54814 260.047 5.83696Z" fill="black"/>
<path d="M232.875 3.12648C233.734 3.12648 234.431 2.4296 234.431 1.56995C234.431 0.710308 233.734 0.0134277 232.875 0.0134277C232.015 0.0134277 231.318 0.710308 231.318 1.56995C231.318 2.4296 232.015 3.12648 232.875 3.12648Z" fill="black"/>
</svg>
