<svg width="22" height="16" viewBox="0 0 22 16" fill="none" xmlns="http://www.w3.org/2000/svg">
<rect x="0.25" y="0.25" width="21.5" height="15.5" rx="1.75" fill="white" stroke="#F5F5F5" stroke-width="0.5"/>
<mask id="mask0_14084_65658" style="mask-type:luminance" maskUnits="userSpaceOnUse" x="0" y="0" width="22" height="16">
<rect x="0.25" y="0.25" width="21.5" height="15.5" rx="1.75" fill="white" stroke="white" stroke-width="0.5"/>
</mask>
<g mask="url(#mask0_14084_65658)">
<path fill-rule="evenodd" clip-rule="evenodd" d="M0 5.33333H22V0H0V5.33333Z" fill="#04AAC8"/>
<path fill-rule="evenodd" clip-rule="evenodd" d="M0 16.0003H22V10.667H0V16.0003Z" fill="#23C840"/>
<path fill-rule="evenodd" clip-rule="evenodd" d="M3.66664 4.26689C3.9897 4.26689 4.28999 4.16764 4.5397 3.99744C4.51082 3.99937 4.4817 4.00036 4.45234 4.00036C3.72911 4.00036 3.14282 3.4034 3.14282 2.66702C3.14282 1.93064 3.72911 1.33369 4.45234 1.33369C4.48184 1.33369 4.51111 1.33468 4.54012 1.33664C4.29033 1.16626 3.98988 1.06689 3.66664 1.06689C2.79877 1.06689 2.09521 1.78324 2.09521 2.66689C2.09521 3.55055 2.79877 4.26689 3.66664 4.26689ZM6.28569 3.73343C6.28569 4.02798 6.05117 4.26676 5.76188 4.26676C5.47259 4.26676 5.23807 4.02798 5.23807 3.73343C5.23807 3.43888 5.47259 3.2001 5.76188 3.2001C6.05117 3.2001 6.28569 3.43888 6.28569 3.73343ZM7.85712 2.13356C8.14641 2.13356 8.38093 1.89478 8.38093 1.60023C8.38093 1.30568 8.14641 1.06689 7.85712 1.06689C7.56783 1.06689 7.33331 1.30568 7.33331 1.60023C7.33331 1.89478 7.56783 2.13356 7.85712 2.13356ZM10.4762 1.60023C10.4762 1.89478 10.2416 2.13356 9.95236 2.13356C9.66306 2.13356 9.42855 1.89478 9.42855 1.60023C9.42855 1.30568 9.66306 1.06689 9.95236 1.06689C10.2416 1.06689 10.4762 1.30568 10.4762 1.60023ZM9.95234 4.26676C10.2416 4.26676 10.4762 4.02798 10.4762 3.73343C10.4762 3.43888 10.2416 3.2001 9.95234 3.2001C9.66305 3.2001 9.42853 3.43888 9.42853 3.73343C9.42853 4.02798 9.66305 4.26676 9.95234 4.26676ZM8.38095 3.73343C8.38095 4.02798 8.14643 4.26676 7.85714 4.26676C7.56784 4.26676 7.33333 4.02798 7.33333 3.73343C7.33333 3.43888 7.56784 3.2001 7.85714 3.2001C8.14643 3.2001 8.38095 3.43888 8.38095 3.73343Z" fill="white"/>
</g>
</svg>
